<svg version="1.1" id="Layer_1" xmlns="http://www.w3.org/2000/svg" xmlns:xlink="http://www.w3.org/1999/xlink" x="0px" y="0px"
	 width="100%" viewBox="0 0 1150 1024" enable-background="new 0 0 1150 1024" xml:space="preserve">
<path fill="#61DAFB" opacity="1.000000" stroke="none" 
	d="
M830.000000,1025.000000 
	C812.979126,1025.000000 795.958191,1025.000000 778.804382,1024.678223 
	C778.014404,1023.913757 777.403198,1023.183960 776.693481,1023.070557 
	C756.934631,1019.912964 738.327698,1013.109375 720.350220,1004.652771 
	C695.983765,993.190979 673.123718,979.194031 651.403198,963.204285 
	C628.835266,946.590576 607.294373,928.822632 586.995117,909.521301 
	C583.450684,906.151062 579.733154,902.962830 575.953674,899.563049 
	C568.546875,906.280090 561.667053,912.884644 554.401428,919.033203 
	C538.683655,932.334473 523.023071,945.725037 506.865723,958.479309 
	C488.692749,972.824829 469.198822,985.257019 448.683044,996.057861 
	C425.283844,1008.376587 401.255493,1018.925110 374.881134,1023.135315 
	C374.497986,1023.196472 374.289856,1024.354126 374.000000,1025.000000 
	C356.645782,1025.000000 339.291534,1025.000000 321.801849,1024.688232 
	C320.851868,1023.919373 320.085968,1023.313782 319.215118,1023.028625 
	C312.493256,1020.826965 305.509430,1019.239258 299.064117,1016.416931 
	C284.307739,1009.955200 270.866608,1001.286316 260.989471,988.313843 
	C253.841293,978.925476 246.513168,969.379150 241.255066,958.904419 
	C227.799774,932.100098 222.620087,902.893311 221.307343,873.299988 
	C220.386414,852.539856 221.885345,831.625427 223.148987,810.831299 
	C224.028931,796.351257 225.658081,781.837463 228.181641,767.555969 
	C231.642639,747.969177 236.182404,728.569214 240.495651,709.141479 
	C241.071533,706.547546 240.751450,705.587219 238.261627,704.949829 
	C233.277740,703.674072 228.298706,702.341187 223.401855,700.769592 
	C183.055496,687.820312 143.556366,672.781860 106.567459,651.863220 
	C78.834496,636.179260 53.213596,617.747375 32.541428,593.079773 
	C18.062551,575.802429 7.135824,556.814087 2.907723,534.384888 
	C2.801872,533.823364 1.659139,533.457275 0.999996,533.000000 
	C1.000000,519.645752 1.000000,506.291534 1.319087,492.802917 
	C2.082667,492.013519 2.809199,491.406464 2.930057,490.696350 
	C5.409469,476.128387 11.343634,462.932831 19.053568,450.493378 
	C30.314402,432.324829 44.995758,417.304199 61.522827,403.830017 
	C78.680130,389.842041 97.028496,377.683502 116.766594,367.878235 
	C135.967056,358.340057 155.496536,349.306549 175.432526,341.449463 
	C196.810516,333.024048 218.830948,326.228729 241.008865,318.570831 
	C239.933548,313.851685 238.666275,308.365570 237.435349,302.871338 
	C235.279800,293.250275 232.755920,283.690948 231.097153,273.984283 
	C228.715027,260.044495 226.776123,246.020218 225.010681,231.986374 
	C223.420242,219.343750 221.342636,206.648712 221.225342,193.960663 
	C221.042130,174.139725 221.388718,154.213501 223.303299,134.505997 
	C224.781799,119.287155 228.125214,104.089996 232.223389,89.322754 
	C238.280457,67.496811 249.174255,47.874645 265.179810,31.712488 
	C279.191376,17.563822 296.015472,7.659130 315.621918,2.946679 
	C316.518768,2.731117 317.211945,1.668237 318.000000,0.999998 
	C337.687561,1.000000 357.375122,1.000000 377.197021,1.319991 
	C377.986633,2.083735 378.593018,2.805540 379.304352,2.930677 
	C398.381561,6.286775 416.312714,13.160682 433.677429,21.394325 
	C456.237762,32.091503 477.653381,44.850780 497.569824,59.958870 
	C512.600952,71.361031 527.641113,82.784180 542.139709,94.844193 
	C552.520569,103.479050 562.068054,113.124268 571.866577,122.445618 
	C574.832275,125.266945 577.245972,125.263367 580.149170,122.420593 
	C585.457397,117.222992 590.792480,112.032341 596.397461,107.162292 
	C610.118286,95.240562 623.615540,83.013763 637.907410,71.808487 
	C658.401611,55.740345 680.073608,41.263275 703.105835,29.045221 
	C725.113953,17.370461 747.893188,7.502490 772.616699,2.907340 
	C773.176636,2.803289 773.543213,1.659038 774.000000,0.999996 
	C793.687561,1.000000 813.375122,1.000000 833.198669,1.311723 
	C834.148804,2.080760 834.911743,2.764925 835.784607,2.961761 
	C851.856018,6.585901 866.282837,13.802396 878.728821,24.367741 
	C902.158508,44.257088 915.929199,70.281052 922.769592,99.758560 
	C926.687439,116.641747 929.637878,133.975983 930.652588,151.246475 
	C931.807495,170.904633 930.974976,190.758179 929.767639,210.450867 
	C928.852966,225.371368 926.303223,240.222397 923.913696,255.012680 
	C921.720398,268.587982 918.841492,282.055450 916.122864,295.541840 
	C914.506592,303.559814 912.616272,311.522552 910.902222,319.270264 
	C919.429810,321.886536 927.446594,324.292847 935.430298,326.804474 
	C974.794006,339.188263 1012.913757,354.492462 1048.683472,375.270355 
	C1074.653198,390.355591 1098.755737,407.752045 1118.395752,430.834808 
	C1133.336670,448.394623 1144.679199,467.688690 1149.091797,490.615997 
	C1149.200073,491.178894 1150.340820,491.543121 1151.000000,492.000000 
	C1151.000000,505.354218 1151.000000,518.708435 1150.680786,532.197144 
	C1149.917236,532.986511 1149.290283,533.582397 1149.056396,534.305420 
	C1146.184814,543.179688 1144.235229,552.468323 1140.380737,560.886780 
	C1128.441284,586.963806 1108.949829,607.051636 1086.777100,624.534912 
	C1067.040161,640.097717 1045.652954,653.256775 1022.713562,663.593079 
	C1002.577576,672.666077 982.314392,681.537354 961.708679,689.460815 
	C946.531982,695.296570 930.706665,699.442383 915.184998,704.387146 
	C912.555481,705.224792 910.186035,705.549194 911.756897,709.977295 
	C914.224792,716.933594 915.662354,724.317200 916.932373,731.624878 
	C920.464355,751.947693 923.969421,772.283447 926.926086,792.695068 
	C928.800781,805.637085 930.638306,818.713867 930.774170,831.748108 
	C930.977478,851.242554 930.610779,870.845581 928.701599,890.226624 
	C927.202332,905.445923 924.012451,920.690247 919.773438,935.404846 
	C912.764893,959.733887 900.698608,981.337524 881.244507,998.362854 
	C866.870422,1010.942383 850.547363,1019.225525 831.884460,1023.071350 
	C831.154846,1023.221741 830.623718,1024.335327 830.000000,1025.000000 
M747.520630,583.982605 
	C748.433655,582.086487 749.289307,580.160217 750.268494,578.298950 
	C760.665161,558.536560 771.174072,538.831970 781.379456,518.971497 
	C782.707031,516.388000 783.765991,512.490051 782.775269,510.103577 
	C779.252136,501.617340 775.036377,493.386719 770.635864,485.302612 
	C756.182556,458.751068 742.100403,431.973022 726.793152,405.917969 
	C712.557983,381.687683 696.961975,358.255676 681.851990,334.544342 
	C681.089050,333.347046 679.321777,332.269958 677.904846,332.096832 
	C670.756836,331.223297 663.582764,330.410919 656.394104,330.053223 
	C639.719116,329.223389 623.033081,328.205475 606.346863,328.113373 
	C583.925171,327.989655 561.498108,328.610992 539.075439,329.025330 
	C529.314331,329.205688 519.558350,329.664185 509.800201,330.000488 
	C500.208191,330.331085 490.599945,330.436249 481.033112,331.120331 
	C477.490082,331.373657 473.531708,332.250824 470.705475,334.206207 
	C468.112518,336.000122 466.721466,339.586121 464.916351,342.455170 
	C452.519562,362.158600 439.822113,381.683014 427.867737,401.651917 
	C415.332794,422.590698 403.234650,443.805206 391.494843,465.200592 
	C384.034454,478.796906 377.824921,493.075775 370.523834,506.765594 
	C368.161407,511.195160 368.138489,514.708374 370.363586,518.898743 
	C375.372711,528.331970 379.970917,537.986694 385.097961,547.353333 
	C397.284027,569.615845 409.159332,592.073242 422.126801,613.877014 
	C437.418579,639.588928 453.692932,664.717834 469.692078,690.004150 
	C470.604187,691.445740 472.786804,692.635376 474.534698,692.897278 
	C480.826752,693.839966 487.171570,694.607300 493.522766,694.944275 
	C509.197601,695.775940 524.885376,696.834595 540.570923,696.886292 
	C566.327271,696.971191 592.089478,696.489990 617.842712,695.942688 
	C636.031067,695.556091 654.211548,694.729675 672.389038,693.948853 
	C676.286255,693.781433 680.286011,693.745911 682.884399,689.624573 
	C689.782898,678.682495 697.235718,668.082458 703.931091,657.021423 
	C718.482605,632.981995 732.699768,608.740295 747.520630,583.982605 
M283.940704,749.294922 
	C281.949402,760.464417 279.626007,771.587097 278.045624,782.814453 
	C275.749451,799.127075 272.924896,815.472534 272.269409,831.881714 
	C271.447235,852.462830 271.274872,873.115662 274.819031,893.676025 
	C277.869110,911.370239 282.235413,928.392822 291.448639,943.951599 
	C302.964142,963.398315 320.212952,973.581726 342.532745,974.903259 
	C355.834656,975.690796 368.777557,972.929626 381.537598,969.170898 
	C403.413055,962.727051 423.674316,952.684937 442.704071,940.458618 
	C458.785614,930.126587 474.062744,918.502319 489.353912,906.995544 
	C498.237274,900.310852 506.543121,892.840942 514.932129,885.521851 
	C523.458008,878.083313 531.766846,870.396057 540.184875,862.804871 
	C530.578918,851.780945 521.348572,841.334351 512.285278,830.744934 
	C503.570557,820.562683 494.649078,810.523926 486.495880,799.902100 
	C472.860504,782.138367 459.789246,763.942261 446.397034,745.990356 
	C445.229065,744.424744 443.583435,742.413879 441.919128,742.154724 
	C433.379761,740.825012 424.763763,739.981750 416.170410,739.005127 
	C404.157501,737.639832 392.102081,736.580505 380.137146,734.881348 
	C368.734894,733.261963 357.415588,731.043762 346.077332,728.991943 
	C327.812256,725.686584 309.561554,722.301636 290.651794,718.830444 
	C288.513947,728.335876 286.254211,738.383118 283.940704,749.294922 
M408.988220,66.486549 
	C393.622559,59.105762 377.455231,54.154346 360.738220,51.089058 
	C349.656586,49.057095 338.576416,49.621922 327.685211,52.737957 
	C309.170441,58.035122 296.463776,70.161903 288.041901,87.015053 
	C277.252869,108.605164 273.399902,131.984131 272.195618,155.719574 
	C271.466736,170.084885 272.383820,184.561966 273.094635,198.962524 
	C273.602417,209.249710 274.509918,219.569138 276.099335,229.739746 
	C279.079498,248.809769 282.559509,267.805420 286.093414,286.783234 
	C287.354309,293.554413 289.373749,300.184357 291.005493,306.713013 
	C301.533600,304.474487 311.451569,302.198425 321.439117,300.285522 
	C333.233032,298.026642 345.063416,295.932922 356.922272,294.045990 
	C367.056061,292.433533 377.254425,291.228485 387.420593,289.817200 
	C396.452850,288.563385 405.459930,287.099457 414.515625,286.052399 
	C422.496613,285.129578 430.538544,284.745605 438.535248,283.941467 
	C442.173523,283.575592 445.182953,281.998291 446.969360,278.466522 
	C447.982727,276.463043 449.340515,274.608948 450.708527,272.813568 
	C462.735138,257.030029 474.606659,241.122833 486.910400,225.557571 
	C497.449036,212.225281 508.398285,199.212433 519.353210,186.216156 
	C526.023193,178.303345 533.048157,170.689728 540.341370,162.459015 
	C536.324402,158.912598 532.331848,155.268860 528.213867,151.772888 
	C510.996246,137.155945 494.056335,122.188507 476.416931,108.097794 
	C455.874969,91.688469 433.569427,77.917336 408.988220,66.486549 
M878.949219,883.144836 
	C879.299438,877.893860 880.062195,872.632019 879.925049,867.393799 
	C879.453674,849.385925 878.994568,831.365967 877.884766,813.390564 
	C877.161499,801.676208 875.960266,789.912354 873.829651,778.381958 
	C870.392761,759.782532 865.810913,741.396790 862.194214,722.826965 
	C861.429016,718.898315 859.595337,718.588318 856.810242,719.088562 
	C829.375977,724.015869 802.007385,729.330994 774.515076,733.904541 
	C756.996094,736.818970 739.349487,739.248657 721.662842,740.751587 
	C712.859802,741.499695 706.878906,743.745789 701.492371,751.539490 
	C689.216309,769.301208 675.730408,786.252930 662.264832,803.158386 
	C650.656677,817.731873 638.434998,831.818542 626.405884,846.053894 
	C621.710510,851.610474 616.800171,856.985474 611.742676,862.721069 
	C616.809265,867.267334 621.411438,871.519958 626.144958,875.621155 
	C640.645142,888.184387 654.682190,901.354614 669.846008,913.062561 
	C693.032715,930.964844 717.315735,947.275330 744.358032,959.142151 
	C767.354553,969.233459 790.634399,977.675415 816.288025,973.832275 
	C823.342590,972.775452 830.644653,970.699463 836.873779,967.321838 
	C853.423645,958.348145 862.730103,943.306824 869.091492,926.021667 
	C874.110046,912.384888 876.804443,898.306213 878.949219,883.144836 
M664.950684,224.644608 
	C679.064758,243.682144 693.168091,262.727692 707.337158,281.724274 
	C707.838501,282.396393 708.957642,282.842773 709.844666,282.955505 
	C718.257080,284.024506 726.675781,285.050476 735.104126,285.985748 
	C744.697021,287.050293 754.347290,287.696289 763.890259,289.088501 
	C777.862854,291.127014 791.785400,293.537720 805.687073,296.025909 
	C823.990417,299.301941 842.252747,302.807007 860.835754,306.270050 
	C861.106201,305.548706 861.719543,304.394012 861.972534,303.165100 
	C865.691528,285.097870 869.957581,267.116394 872.881165,248.919724 
	C875.933167,229.923538 878.427734,210.769318 879.749390,191.586578 
	C880.702271,177.755615 879.992310,163.708755 878.811951,149.861511 
	C877.697205,136.784683 875.704041,123.683876 872.816406,110.882568 
	C869.369019,95.600426 863.078247,81.219421 852.071045,69.740906 
	C836.970764,53.993896 818.312134,48.403500 796.555969,50.816349 
	C775.614258,53.138874 756.281494,59.983078 737.641052,69.150841 
	C727.656433,74.061462 717.580322,79.094780 708.466492,85.403236 
	C689.268616,98.691658 670.594604,112.745712 651.882080,126.721809 
	C645.332947,131.613297 639.146057,137.025940 633.073853,142.510666 
	C625.760010,149.116943 618.744385,156.053375 611.645386,162.803421 
	C617.364868,168.997055 622.698242,174.650085 627.889648,180.430603 
	C632.608582,185.684998 637.258545,191.006561 641.786438,196.425934 
	C649.433899,205.578918 656.960876,214.832520 664.950684,224.644608 
M865.532227,569.027771 
	C869.361206,578.948608 873.385559,588.799255 876.976990,598.805298 
	C883.771057,617.734497 890.316406,636.752991 897.063782,656.015869 
	C897.969299,655.948730 899.356079,656.108582 900.562744,655.715576 
	C912.351196,651.876770 924.097839,647.909546 935.878967,644.047974 
	C966.180420,634.115784 995.285400,621.546570 1022.963745,605.609253 
	C1040.261719,595.648987 1056.580322,584.353333 1070.779053,570.409180 
	C1078.156982,563.163635 1084.722656,554.771606 1090.224731,546.000183 
	C1102.284790,526.773804 1103.859253,506.368866 1093.881836,485.619080 
	C1085.804810,468.821594 1072.812256,456.100128 1058.796021,444.307434 
	C1039.565796,428.127991 1017.893005,415.906494 995.361084,405.025513 
	C971.943665,393.716919 947.719604,384.497894 923.001282,376.528870 
	C914.299011,373.723358 905.505127,371.202240 896.781189,368.559784 
	C896.068787,370.682678 895.563293,372.184082 895.060974,373.686523 
	C890.255310,388.060974 886.095703,402.691803 880.512146,416.757416 
	C868.436584,447.177399 855.584778,477.288666 843.213684,507.592804 
	C842.233093,509.994812 841.474792,513.342590 842.375671,515.522644 
	C849.697449,533.243103 857.439697,550.789795 865.532227,569.027771 
M153.687088,406.043915 
	C138.365204,415.041016 122.651741,423.442535 107.823883,433.191071 
	C90.596527,444.517212 75.404442,458.360931 63.854500,475.696350 
	C49.857414,496.704773 47.343048,518.650574 59.185703,541.550049 
	C68.249901,559.076843 81.942413,572.662170 97.239075,584.527100 
	C121.679070,603.484314 148.871429,617.924255 177.407806,629.560791 
	C197.669937,637.823181 218.527145,644.636902 239.180771,651.921387 
	C244.441284,653.776733 249.937759,654.963074 255.311432,656.452759 
	C255.950012,654.344177 256.314240,652.956543 256.787323,651.607117 
	C263.502136,632.452393 269.694275,613.092468 277.087952,594.203003 
	C287.303040,568.105408 298.322479,542.319092 309.306580,516.531128 
	C310.531006,513.656616 310.609802,511.510345 309.475128,508.948242 
	C305.297485,499.515442 300.896576,490.173676 296.996704,480.627289 
	C288.522858,459.884583 280.036530,439.139343 272.073517,418.198090 
	C266.291260,402.991791 261.237610,387.503418 256.115112,372.055939 
	C255.214493,369.340027 254.569672,368.592651 251.711716,369.593079 
	C246.093994,371.559448 240.301620,373.021149 234.607300,374.775421 
	C207.141663,383.236877 180.390625,393.541443 153.687088,406.043915 
M747.946106,341.610413 
	C769.420837,378.085022 790.895569,414.559601 812.723206,451.633575 
	C824.327637,420.112762 835.986145,388.445007 847.860718,356.190369 
	C813.751099,348.498108 780.315979,342.889557 745.256836,338.554993 
	C746.668335,340.101685 747.079529,340.552307 747.946106,341.610413 
M753.283447,685.938293 
	C754.204468,685.627014 755.104492,685.151306 756.049866,685.030273 
	C764.304626,683.972900 772.617554,683.276917 780.817627,681.903503 
	C797.452576,679.117432 814.046814,676.074463 830.617188,672.923767 
	C836.187866,671.864563 841.635437,670.158020 847.814941,668.574158 
	C835.827026,636.177185 824.149536,604.619080 812.514954,573.176819 
	C790.662903,611.046265 769.141541,648.342773 747.416138,685.992798 
	C748.906921,685.992798 750.655029,685.992798 753.283447,685.938293 
M579.500000,277.000092 
	C600.176636,277.428864 620.853271,277.857635 642.544556,278.307465 
	C620.417603,251.735519 598.618958,225.557816 575.985413,198.377518 
	C553.322449,225.608887 531.486450,251.846634 509.650482,278.084381 
	C512.354126,278.663727 514.073181,278.090210 515.807800,278.038727 
	C529.379700,277.635986 542.953430,277.273773 556.528931,277.024017 
	C563.850342,276.889313 571.176147,277.000092 579.500000,277.000092 
M391.839600,340.051361 
	C391.252960,340.352112 390.694153,340.830780 390.075623,340.927460 
	C374.833801,343.309998 359.543121,345.409607 344.351501,348.074738 
	C331.175659,350.386261 318.110748,353.330353 304.107086,356.175629 
	C316.034302,388.512024 327.725464,420.208557 339.443481,451.977814 
	C361.608765,413.624664 383.230621,376.211823 404.761902,338.955658 
	C401.192261,339.267517 396.967316,339.636566 391.839600,340.051361 
M339.025177,575.815125 
	C327.415466,606.502502 315.805756,637.189880 303.849243,668.794006 
	C337.916809,676.421631 371.135712,682.305237 404.702148,686.228882 
	C382.808594,648.266235 361.329224,611.021790 340.007507,574.050659 
	C340.013824,574.040283 339.677216,574.591309 339.025177,575.815125 
M629.463196,747.000000 
	C590.138306,747.000000 550.813477,747.000000 511.488617,747.000000 
	C511.231415,747.433167 510.974182,747.866394 510.716980,748.299561 
	C532.157471,774.104370 553.598022,799.909180 575.952393,826.813904 
	C598.393799,799.818054 619.903442,773.943054 641.413147,748.068054 
	C641.059753,747.712036 640.706360,747.356018 640.353027,747.000000 
	C637.049255,747.000000 633.745544,747.000000 629.463196,747.000000 
z"/>
<path fill="#000000" opacity="1.000000" stroke="none" 
	d="
M830.468689,1025.000000 
	C830.623718,1024.335327 831.154846,1023.221741 831.884460,1023.071350 
	C850.547363,1019.225525 866.870422,1010.942383 881.244507,998.362854 
	C900.698608,981.337524 912.764893,959.733887 919.773438,935.404846 
	C924.012451,920.690247 927.202332,905.445923 928.701599,890.226624 
	C930.610779,870.845581 930.977478,851.242554 930.774170,831.748108 
	C930.638306,818.713867 928.800781,805.637085 926.926086,792.695068 
	C923.969421,772.283447 920.464355,751.947693 916.932373,731.624878 
	C915.662354,724.317200 914.224792,716.933594 911.756897,709.977295 
	C910.186035,705.549194 912.555481,705.224792 915.184998,704.387146 
	C930.706665,699.442383 946.531982,695.296570 961.708679,689.460815 
	C982.314392,681.537354 1002.577576,672.666077 1022.713562,663.593079 
	C1045.652954,653.256775 1067.040161,640.097717 1086.777100,624.534912 
	C1108.949829,607.051636 1128.441284,586.963806 1140.380737,560.886780 
	C1144.235229,552.468323 1146.184814,543.179688 1149.056396,534.305420 
	C1149.290283,533.582397 1149.917236,532.986511 1150.680786,532.665771 
	C1151.000000,696.911743 1151.000000,860.823486 1151.000000,1025.000000 
	C1044.312622,1025.000000 937.624939,1025.000000 830.468689,1025.000000 
z"/>
<path fill="#000000" opacity="1.000000" stroke="none" 
	d="
M0.999996,533.468628 
	C1.659139,533.457275 2.801872,533.823364 2.907723,534.384888 
	C7.135824,556.814087 18.062551,575.802429 32.541428,593.079773 
	C53.213596,617.747375 78.834496,636.179260 106.567459,651.863220 
	C143.556366,672.781860 183.055496,687.820312 223.401855,700.769592 
	C228.298706,702.341187 233.277740,703.674072 238.261627,704.949829 
	C240.751450,705.587219 241.071533,706.547546 240.495651,709.141479 
	C236.182404,728.569214 231.642639,747.969177 228.181641,767.555969 
	C225.658081,781.837463 224.028931,796.351257 223.148987,810.831299 
	C221.885345,831.625427 220.386414,852.539856 221.307343,873.299988 
	C222.620087,902.893311 227.799774,932.100098 241.255066,958.904419 
	C246.513168,969.379150 253.841293,978.925476 260.989471,988.313843 
	C270.866608,1001.286316 284.307739,1009.955200 299.064117,1016.416931 
	C305.509430,1019.239258 312.493256,1020.826965 319.215118,1023.028625 
	C320.085968,1023.313782 320.851868,1023.919373 321.333191,1024.688232 
	C214.390808,1025.000000 107.781616,1025.000000 1.000000,1025.000000 
	C1.000000,861.312500 1.000000,697.624878 0.999996,533.468628 
z"/>
<path fill="#000000" opacity="1.000000" stroke="none" 
	d="
M1151.000000,491.531372 
	C1150.340820,491.543121 1149.200073,491.178894 1149.091797,490.615997 
	C1144.679199,467.688690 1133.336670,448.394623 1118.395752,430.834808 
	C1098.755737,407.752045 1074.653198,390.355591 1048.683472,375.270355 
	C1012.913757,354.492462 974.794006,339.188263 935.430298,326.804474 
	C927.446594,324.292847 919.429810,321.886536 910.902222,319.270264 
	C912.616272,311.522552 914.506592,303.559814 916.122864,295.541840 
	C918.841492,282.055450 921.720398,268.587982 923.913696,255.012680 
	C926.303223,240.222397 928.852966,225.371368 929.767639,210.450867 
	C930.974976,190.758179 931.807495,170.904633 930.652588,151.246475 
	C929.637878,133.975983 926.687439,116.641747 922.769592,99.758560 
	C915.929199,70.281052 902.158508,44.257088 878.728821,24.367741 
	C866.282837,13.802396 851.856018,6.585901 835.784607,2.961761 
	C834.911743,2.764925 834.148804,2.080760 833.667358,1.311723 
	C939.609436,1.000000 1045.218872,1.000000 1151.000000,1.000000 
	C1151.000000,164.354187 1151.000000,327.708435 1151.000000,491.531372 
z"/>
<path fill="#000000" opacity="1.000000" stroke="none" 
	d="
M317.531342,0.999998 
	C317.211945,1.668237 316.518768,2.731117 315.621918,2.946679 
	C296.015472,7.659130 279.191376,17.563822 265.179810,31.712488 
	C249.174255,47.874645 238.280457,67.496811 232.223389,89.322754 
	C228.125214,104.089996 224.781799,119.287155 223.303299,134.505997 
	C221.388718,154.213501 221.042130,174.139725 221.225342,193.960663 
	C221.342636,206.648712 223.420242,219.343750 225.010681,231.986374 
	C226.776123,246.020218 228.715027,260.044495 231.097153,273.984283 
	C232.755920,283.690948 235.279800,293.250275 237.435349,302.871338 
	C238.666275,308.365570 239.933548,313.851685 241.008865,318.570831 
	C218.830948,326.228729 196.810516,333.024048 175.432526,341.449463 
	C155.496536,349.306549 135.967056,358.340057 116.766594,367.878235 
	C97.028496,377.683502 78.680130,389.842041 61.522827,403.830017 
	C44.995758,417.304199 30.314402,432.324829 19.053568,450.493378 
	C11.343634,462.932831 5.409469,476.128387 2.930057,490.696350 
	C2.809199,491.406464 2.082667,492.013519 1.319087,492.334290 
	C1.000000,328.421967 1.000000,164.843918 1.000000,1.000000 
	C106.354080,1.000000 211.708374,1.000000 317.531342,0.999998 
z"/>
<path fill="#000000" opacity="1.000000" stroke="none" 
	d="
M374.468658,1025.000000 
	C374.289856,1024.354126 374.497986,1023.196472 374.881134,1023.135315 
	C401.255493,1018.925110 425.283844,1008.376587 448.683044,996.057861 
	C469.198822,985.257019 488.692749,972.824829 506.865723,958.479309 
	C523.023071,945.725037 538.683655,932.334473 554.401428,919.033203 
	C561.667053,912.884644 568.546875,906.280090 575.953674,899.563049 
	C579.733154,902.962830 583.450684,906.151062 586.995117,909.521301 
	C607.294373,928.822632 628.835266,946.590576 651.403198,963.204285 
	C673.123718,979.194031 695.983765,993.190979 720.350220,1004.652771 
	C738.327698,1013.109375 756.934631,1019.912964 776.693481,1023.070557 
	C777.403198,1023.183960 778.014404,1023.913757 778.335693,1024.678223 
	C643.645752,1025.000000 509.291534,1025.000000 374.468658,1025.000000 
z"/>
<path fill="#000000" opacity="1.000000" stroke="none" 
	d="
M773.531372,0.999996 
	C773.543213,1.659038 773.176636,2.803289 772.616699,2.907340 
	C747.893188,7.502490 725.113953,17.370461 703.105835,29.045221 
	C680.073608,41.263275 658.401611,55.740345 637.907410,71.808487 
	C623.615540,83.013763 610.118286,95.240562 596.397461,107.162292 
	C590.792480,112.032341 585.457397,117.222992 580.149170,122.420593 
	C577.245972,125.263367 574.832275,125.266945 571.866577,122.445618 
	C562.068054,113.124268 552.520569,103.479050 542.139709,94.844193 
	C527.641113,82.784180 512.600952,71.361031 497.569824,59.958870 
	C477.653381,44.850780 456.237762,32.091503 433.677429,21.394325 
	C416.312714,13.160682 398.381561,6.286775 379.304352,2.930677 
	C378.593018,2.805540 377.986633,2.083735 377.665680,1.319991 
	C509.687561,1.000000 641.375122,1.000000 773.531372,0.999996 
z"/>
<path fill="#000000" opacity="1.000000" stroke="none" 
	d="
M747.287109,584.281982 
	C732.699768,608.740295 718.482605,632.981995 703.931091,657.021423 
	C697.235718,668.082458 689.782898,678.682495 682.884399,689.624573 
	C680.286011,693.745911 676.286255,693.781433 672.389038,693.948853 
	C654.211548,694.729675 636.031067,695.556091 617.842712,695.942688 
	C592.089478,696.489990 566.327271,696.971191 540.570923,696.886292 
	C524.885376,696.834595 509.197601,695.775940 493.522766,694.944275 
	C487.171570,694.607300 480.826752,693.839966 474.534698,692.897278 
	C472.786804,692.635376 470.604187,691.445740 469.692078,690.004150 
	C453.692932,664.717834 437.418579,639.588928 422.126801,613.877014 
	C409.159332,592.073242 397.284027,569.615845 385.097961,547.353333 
	C379.970917,537.986694 375.372711,528.331970 370.363586,518.898743 
	C368.138489,514.708374 368.161407,511.195160 370.523834,506.765594 
	C377.824921,493.075775 384.034454,478.796906 391.494843,465.200592 
	C403.234650,443.805206 415.332794,422.590698 427.867737,401.651917 
	C439.822113,381.683014 452.519562,362.158600 464.916351,342.455170 
	C466.721466,339.586121 468.112518,336.000122 470.705475,334.206207 
	C473.531708,332.250824 477.490082,331.373657 481.033112,331.120331 
	C490.599945,330.436249 500.208191,330.331085 509.800201,330.000488 
	C519.558350,329.664185 529.314331,329.205688 539.075439,329.025330 
	C561.498108,328.610992 583.925171,327.989655 606.346863,328.113373 
	C623.033081,328.205475 639.719116,329.223389 656.394104,330.053223 
	C663.582764,330.410919 670.756836,331.223297 677.904846,332.096832 
	C679.321777,332.269958 681.089050,333.347046 681.851990,334.544342 
	C696.961975,358.255676 712.557983,381.687683 726.793152,405.917969 
	C742.100403,431.973022 756.182556,458.751068 770.635864,485.302612 
	C775.036377,493.386719 779.252136,501.617340 782.775269,510.103577 
	C783.765991,512.490051 782.707031,516.388000 781.379456,518.971497 
	C771.174072,538.831970 760.665161,558.536560 750.268494,578.298950 
	C749.289307,580.160217 748.433655,582.086487 747.287109,584.281982 
M564.801514,410.000824 
	C555.932068,412.318329 546.804993,413.935883 538.242371,417.087189 
	C514.362488,425.875641 496.609344,441.948456 484.879852,464.532288 
	C473.848602,485.771790 470.449554,508.093475 474.902649,531.770630 
	C478.674347,551.824707 487.478607,569.133728 501.409668,583.832214 
	C511.610809,594.595276 523.708191,602.627625 537.536926,608.242432 
	C554.414978,615.095398 571.977661,616.869629 589.715210,614.755554 
	C603.332214,613.132629 616.273254,608.569519 628.321838,601.419006 
	C644.330017,591.918640 657.016113,579.298340 665.886963,563.114563 
	C676.731506,543.329956 681.220154,522.163696 678.075867,499.521057 
	C676.594360,488.852142 673.933655,478.621552 669.405640,468.873413 
	C661.828491,452.561035 650.794006,438.990021 636.082275,428.706757 
	C624.495850,420.608063 611.907959,414.072021 597.724915,412.146149 
	C587.163086,410.712036 576.412964,410.665039 564.801514,410.000824 
z"/>
<path fill="#000000" opacity="1.000000" stroke="none" 
	d="
M283.967590,748.862610 
	C286.254211,738.383118 288.513947,728.335876 290.651794,718.830444 
	C309.561554,722.301636 327.812256,725.686584 346.077332,728.991943 
	C357.415588,731.043762 368.734894,733.261963 380.137146,734.881348 
	C392.102081,736.580505 404.157501,737.639832 416.170410,739.005127 
	C424.763763,739.981750 433.379761,740.825012 441.919128,742.154724 
	C443.583435,742.413879 445.229065,744.424744 446.397034,745.990356 
	C459.789246,763.942261 472.860504,782.138367 486.495880,799.902100 
	C494.649078,810.523926 503.570557,820.562683 512.285278,830.744934 
	C521.348572,841.334351 530.578918,851.780945 540.184875,862.804871 
	C531.766846,870.396057 523.458008,878.083313 514.932129,885.521851 
	C506.543121,892.840942 498.237274,900.310852 489.353912,906.995544 
	C474.062744,918.502319 458.785614,930.126587 442.704071,940.458618 
	C423.674316,952.684937 403.413055,962.727051 381.537598,969.170898 
	C368.777557,972.929626 355.834656,975.690796 342.532745,974.903259 
	C320.212952,973.581726 302.964142,963.398315 291.448639,943.951599 
	C282.235413,928.392822 277.869110,911.370239 274.819031,893.676025 
	C271.274872,873.115662 271.447235,852.462830 272.269409,831.881714 
	C272.924896,815.472534 275.749451,799.127075 278.045624,782.814453 
	C279.626007,771.587097 281.949402,760.464417 283.967590,748.862610 
z"/>
<path fill="#000000" opacity="1.000000" stroke="none" 
	d="
M409.297974,66.716957 
	C433.569427,77.917336 455.874969,91.688469 476.416931,108.097794 
	C494.056335,122.188507 510.996246,137.155945 528.213867,151.772888 
	C532.331848,155.268860 536.324402,158.912598 540.341370,162.459015 
	C533.048157,170.689728 526.023193,178.303345 519.353210,186.216156 
	C508.398285,199.212433 497.449036,212.225281 486.910400,225.557571 
	C474.606659,241.122833 462.735138,257.030029 450.708527,272.813568 
	C449.340515,274.608948 447.982727,276.463043 446.969360,278.466522 
	C445.182953,281.998291 442.173523,283.575592 438.535248,283.941467 
	C430.538544,284.745605 422.496613,285.129578 414.515625,286.052399 
	C405.459930,287.099457 396.452850,288.563385 387.420593,289.817200 
	C377.254425,291.228485 367.056061,292.433533 356.922272,294.045990 
	C345.063416,295.932922 333.233032,298.026642 321.439117,300.285522 
	C311.451569,302.198425 301.533600,304.474487 291.005493,306.713013 
	C289.373749,300.184357 287.354309,293.554413 286.093414,286.783234 
	C282.559509,267.805420 279.079498,248.809769 276.099335,229.739746 
	C274.509918,219.569138 273.602417,209.249710 273.094635,198.962524 
	C272.383820,184.561966 271.466736,170.084885 272.195618,155.719574 
	C273.399902,131.984131 277.252869,108.605164 288.041901,87.015053 
	C296.463776,70.161903 309.170441,58.035122 327.685211,52.737957 
	C338.576416,49.621922 349.656586,49.057095 360.738220,51.089058 
	C377.455231,54.154346 393.622559,59.105762 409.297974,66.716957 
z"/>
<path fill="#000000" opacity="1.000000" stroke="none" 
	d="
M878.741882,883.558472 
	C876.804443,898.306213 874.110046,912.384888 869.091492,926.021667 
	C862.730103,943.306824 853.423645,958.348145 836.873779,967.321838 
	C830.644653,970.699463 823.342590,972.775452 816.288025,973.832275 
	C790.634399,977.675415 767.354553,969.233459 744.358032,959.142151 
	C717.315735,947.275330 693.032715,930.964844 669.846008,913.062561 
	C654.682190,901.354614 640.645142,888.184387 626.144958,875.621155 
	C621.411438,871.519958 616.809265,867.267334 611.742676,862.721069 
	C616.800171,856.985474 621.710510,851.610474 626.405884,846.053894 
	C638.434998,831.818542 650.656677,817.731873 662.264832,803.158386 
	C675.730408,786.252930 689.216309,769.301208 701.492371,751.539490 
	C706.878906,743.745789 712.859802,741.499695 721.662842,740.751587 
	C739.349487,739.248657 756.996094,736.818970 774.515076,733.904541 
	C802.007385,729.330994 829.375977,724.015869 856.810242,719.088562 
	C859.595337,718.588318 861.429016,718.898315 862.194214,722.826965 
	C865.810913,741.396790 870.392761,759.782532 873.829651,778.381958 
	C875.960266,789.912354 877.161499,801.676208 877.884766,813.390564 
	C878.994568,831.365967 879.453674,849.385925 879.925049,867.393799 
	C880.062195,872.632019 879.299438,877.893860 878.741882,883.558472 
z"/>
<path fill="#000000" opacity="1.000000" stroke="none" 
	d="
M664.744629,224.344208 
	C656.960876,214.832520 649.433899,205.578918 641.786438,196.425934 
	C637.258545,191.006561 632.608582,185.684998 627.889648,180.430603 
	C622.698242,174.650085 617.364868,168.997055 611.645386,162.803421 
	C618.744385,156.053375 625.760010,149.116943 633.073853,142.510666 
	C639.146057,137.025940 645.332947,131.613297 651.882080,126.721809 
	C670.594604,112.745712 689.268616,98.691658 708.466492,85.403236 
	C717.580322,79.094780 727.656433,74.061462 737.641052,69.150841 
	C756.281494,59.983078 775.614258,53.138874 796.555969,50.816349 
	C818.312134,48.403500 836.970764,53.993896 852.071045,69.740906 
	C863.078247,81.219421 869.369019,95.600426 872.816406,110.882568 
	C875.704041,123.683876 877.697205,136.784683 878.811951,149.861511 
	C879.992310,163.708755 880.702271,177.755615 879.749390,191.586578 
	C878.427734,210.769318 875.933167,229.923538 872.881165,248.919724 
	C869.957581,267.116394 865.691528,285.097870 861.972534,303.165100 
	C861.719543,304.394012 861.106201,305.548706 860.835754,306.270050 
	C842.252747,302.807007 823.990417,299.301941 805.687073,296.025909 
	C791.785400,293.537720 777.862854,291.127014 763.890259,289.088501 
	C754.347290,287.696289 744.697021,287.050293 735.104126,285.985748 
	C726.675781,285.050476 718.257080,284.024506 709.844666,282.955505 
	C708.957642,282.842773 707.838501,282.396393 707.337158,281.724274 
	C693.168091,262.727692 679.064758,243.682144 664.744629,224.344208 
z"/>
<path fill="#000000" opacity="1.000000" stroke="none" 
	d="
M865.293091,568.708618 
	C857.439697,550.789795 849.697449,533.243103 842.375671,515.522644 
	C841.474792,513.342590 842.233093,509.994812 843.213684,507.592804 
	C855.584778,477.288666 868.436584,447.177399 880.512146,416.757416 
	C886.095703,402.691803 890.255310,388.060974 895.060974,373.686523 
	C895.563293,372.184082 896.068787,370.682678 896.781189,368.559784 
	C905.505127,371.202240 914.299011,373.723358 923.001282,376.528870 
	C947.719604,384.497894 971.943665,393.716919 995.361084,405.025513 
	C1017.893005,415.906494 1039.565796,428.127991 1058.796021,444.307434 
	C1072.812256,456.100128 1085.804810,468.821594 1093.881836,485.619080 
	C1103.859253,506.368866 1102.284790,526.773804 1090.224731,546.000183 
	C1084.722656,554.771606 1078.156982,563.163635 1070.779053,570.409180 
	C1056.580322,584.353333 1040.261719,595.648987 1022.963745,605.609253 
	C995.285400,621.546570 966.180420,634.115784 935.878967,644.047974 
	C924.097839,647.909546 912.351196,651.876770 900.562744,655.715576 
	C899.356079,656.108582 897.969299,655.948730 897.063782,656.015869 
	C890.316406,636.752991 883.771057,617.734497 876.976990,598.805298 
	C873.385559,588.799255 869.361206,578.948608 865.293091,568.708618 
z"/>
<path fill="#000000" opacity="1.000000" stroke="none" 
	d="
M154.071075,405.992279 
	C180.390625,393.541443 207.141663,383.236877 234.607300,374.775421 
	C240.301620,373.021149 246.093994,371.559448 251.711716,369.593079 
	C254.569672,368.592651 255.214493,369.340027 256.115112,372.055939 
	C261.237610,387.503418 266.291260,402.991791 272.073517,418.198090 
	C280.036530,439.139343 288.522858,459.884583 296.996704,480.627289 
	C300.896576,490.173676 305.297485,499.515442 309.475128,508.948242 
	C310.609802,511.510345 310.531006,513.656616 309.306580,516.531128 
	C298.322479,542.319092 287.303040,568.105408 277.087952,594.203003 
	C269.694275,613.092468 263.502136,632.452393 256.787323,651.607117 
	C256.314240,652.956543 255.950012,654.344177 255.311432,656.452759 
	C249.937759,654.963074 244.441284,653.776733 239.180771,651.921387 
	C218.527145,644.636902 197.669937,637.823181 177.407806,629.560791 
	C148.871429,617.924255 121.679070,603.484314 97.239075,584.527100 
	C81.942413,572.662170 68.249901,559.076843 59.185703,541.550049 
	C47.343048,518.650574 49.857414,496.704773 63.854500,475.696350 
	C75.404442,458.360931 90.596527,444.517212 107.823883,433.191071 
	C122.651741,423.442535 138.365204,415.041016 154.071075,405.992279 
z"/>
<path fill="#000000" opacity="1.000000" stroke="none" 
	d="
M747.718445,341.306702 
	C747.079529,340.552307 746.668335,340.101685 745.256836,338.554993 
	C780.315979,342.889557 813.751099,348.498108 847.860718,356.190369 
	C835.986145,388.445007 824.327637,420.112762 812.723206,451.633575 
	C790.895569,414.559601 769.420837,378.085022 747.718445,341.306702 
z"/>
<path fill="#000000" opacity="1.000000" stroke="none" 
	d="
M752.843323,685.965576 
	C750.655029,685.992798 748.906921,685.992798 747.416138,685.992798 
	C769.141541,648.342773 790.662903,611.046265 812.514954,573.176819 
	C824.149536,604.619080 835.827026,636.177185 847.814941,668.574158 
	C841.635437,670.158020 836.187866,671.864563 830.617188,672.923767 
	C814.046814,676.074463 797.452576,679.117432 780.817627,681.903503 
	C772.617554,683.276917 764.304626,683.972900 756.049866,685.030273 
	C755.104492,685.151306 754.204468,685.627014 752.843323,685.965576 
z"/>
<path fill="#000000" opacity="1.000000" stroke="none" 
	d="
M579.000000,277.000122 
	C571.176147,277.000092 563.850342,276.889313 556.528931,277.024017 
	C542.953430,277.273773 529.379700,277.635986 515.807800,278.038727 
	C514.073181,278.090210 512.354126,278.663727 509.650482,278.084381 
	C531.486450,251.846634 553.322449,225.608887 575.985413,198.377518 
	C598.618958,225.557816 620.417603,251.735519 642.544556,278.307465 
	C620.853271,277.857635 600.176636,277.428864 579.000000,277.000122 
z"/>
<path fill="#000000" opacity="1.000000" stroke="none" 
	d="
M392.291016,340.028503 
	C396.967316,339.636566 401.192261,339.267517 404.761902,338.955658 
	C383.230621,376.211823 361.608765,413.624664 339.443481,451.977814 
	C327.725464,420.208557 316.034302,388.512024 304.107086,356.175629 
	C318.110748,353.330353 331.175659,350.386261 344.351501,348.074738 
	C359.543121,345.409607 374.833801,343.309998 390.075623,340.927460 
	C390.694153,340.830780 391.252960,340.352112 392.291016,340.028503 
z"/>
<path fill="#000000" opacity="1.000000" stroke="none" 
	d="
M339.182892,575.478699 
	C339.677216,574.591309 340.013824,574.040283 340.007507,574.050659 
	C361.329224,611.021790 382.808594,648.266235 404.702148,686.228882 
	C371.135712,682.305237 337.916809,676.421631 303.849243,668.794006 
	C315.805756,637.189880 327.415466,606.502502 339.182892,575.478699 
z"/>
<path fill="#000000" opacity="1.000000" stroke="none" 
	d="
M629.952515,747.000000 
	C633.745544,747.000000 637.049255,747.000000 640.353027,747.000000 
	C640.706360,747.356018 641.059753,747.712036 641.413147,748.068054 
	C619.903442,773.943054 598.393799,799.818054 575.952393,826.813904 
	C553.598022,799.909180 532.157471,774.104370 510.716980,748.299561 
	C510.974182,747.866394 511.231415,747.433167 511.488617,747.000000 
	C550.813477,747.000000 590.138306,747.000000 629.952515,747.000000 
z"/>
<path fill="#61DAFB" opacity="1.000000" stroke="none" 
	d="
M565.274109,410.000549 
	C576.412964,410.665039 587.163086,410.712036 597.724915,412.146149 
	C611.907959,414.072021 624.495850,420.608063 636.082275,428.706757 
	C650.794006,438.990021 661.828491,452.561035 669.405640,468.873413 
	C673.933655,478.621552 676.594360,488.852142 678.075867,499.521057 
	C681.220154,522.163696 676.731506,543.329956 665.886963,563.114563 
	C657.016113,579.298340 644.330017,591.918640 628.321838,601.419006 
	C616.273254,608.569519 603.332214,613.132629 589.715210,614.755554 
	C571.977661,616.869629 554.414978,615.095398 537.536926,608.242432 
	C523.708191,602.627625 511.610809,594.595276 501.409668,583.832214 
	C487.478607,569.133728 478.674347,551.824707 474.902649,531.770630 
	C470.449554,508.093475 473.848602,485.771790 484.879852,464.532288 
	C496.609344,441.948456 514.362488,425.875641 538.242371,417.087189 
	C546.804993,413.935883 555.932068,412.318329 565.274109,410.000549 
z"/>
</svg>