<svg width="20" height="20" viewBox="0 0 20 20" fill="none" xmlns="http://www.w3.org/2000/svg">
<path d="M16.6271 6.60007C16.6373 6.747 16.6373 6.89392 16.6373 7.04221C16.6373 11.5605 13.1977 16.7714 6.90813 16.7714V16.7687C5.05019 16.7714 3.23084 16.2392 1.66675 15.2357C1.93691 15.2682 2.20842 15.2845 2.48062 15.2851C4.02033 15.2865 5.51603 14.7699 6.72735 13.8186C5.26415 13.7908 3.98106 12.8368 3.53282 11.444C4.04538 11.5429 4.57351 11.5225 5.07659 11.3851C3.48136 11.0628 2.33369 9.66121 2.33369 8.03347C2.33369 8.01858 2.33369 8.00436 2.33369 7.99014C2.80901 8.25488 3.3412 8.40181 3.88559 8.41806C2.38311 7.41393 1.91998 5.41515 2.82729 3.85242C4.56336 5.98865 7.1248 7.28732 9.87448 7.42477C9.5989 6.23714 9.97537 4.99264 10.8637 4.15779C12.2409 2.86318 14.4069 2.92954 15.7016 4.30607C16.4673 4.15508 17.2013 3.87409 17.873 3.47595C17.6177 4.26748 17.0835 4.93983 16.3698 5.36708C17.0476 5.28718 17.7098 5.10572 18.3334 4.82879C17.8743 5.51672 17.2961 6.11594 16.6271 6.60007Z" fill="black"/>
</svg>
